<svg width="1280" height="255" viewBox="0 0 1280 255" fill="none" xmlns="http://www.w3.org/2000/svg">
<path d="M0.435313 249.98C0.435313 249.413 0.888647 249.073 1.79531 248.96L18.6253 246.58C20.552 246.24 21.912 245.73 22.7053 245.05C23.4986 244.37 23.8953 243.35 23.8953 241.99V22.35C23.8953 20.7633 23.4986 19.63 22.7053 18.95C21.912 18.27 20.4953 17.76 18.4553 17.42L1.79531 15.04C0.888647 14.8133 0.435313 14.4166 0.435313 13.85C0.435313 13.51 0.548646 13.2833 0.775313 13.17C1.00198 13.0567 1.34198 13 1.79531 13H76.5953C97.222 13 115.922 16.0033 132.695 22.01C149.582 28.0167 164.089 36.7433 176.215 48.19C188.342 59.5233 197.692 73.18 204.265 89.16C210.839 105.14 214.125 123.16 214.125 143.22C214.125 165.773 209.139 185.097 199.165 201.19C189.305 217.283 175.535 229.637 157.855 238.25C140.289 246.75 119.945 251 96.8253 251H1.79531C1.22865 251 0.83198 250.943 0.605314 250.83C0.49198 250.603 0.435313 250.32 0.435313 249.98ZM96.8253 248.28C112.352 248.28 126.122 244.37 138.135 236.55C150.262 228.73 159.782 216.717 166.695 200.51C173.722 184.303 177.235 163.677 177.235 138.63C177.235 119.25 175.025 101.967 170.605 86.78C166.185 71.48 159.669 58.56 151.055 48.02C142.442 37.48 131.902 29.49 119.435 24.05C106.969 18.4967 92.7453 15.72 76.7653 15.72H58.9153V242.33C58.9153 244.257 59.4253 245.73 60.4453 246.75C61.4653 247.77 62.882 248.28 64.6953 248.28H96.8253ZM279.496 102.42V242.33C279.496 243.69 279.836 244.767 280.516 245.56C281.196 246.353 282.216 246.92 283.576 247.26L294.286 248.79C294.966 248.903 295.419 249.073 295.646 249.3C295.872 249.413 295.986 249.64 295.986 249.98C295.986 250.32 295.872 250.603 295.646 250.83C295.419 250.943 295.079 251 294.626 251H233.596C233.369 251 233.142 250.943 232.916 250.83C232.689 250.603 232.576 250.32 232.576 249.98C232.576 249.867 232.689 249.697 232.916 249.47C233.142 249.243 233.482 249.073 233.936 248.96L245.326 247.26C246.799 246.92 247.819 246.353 248.386 245.56C249.066 244.767 249.406 243.747 249.406 242.5V116.87C249.406 116.303 249.236 115.85 248.896 115.51C248.669 115.17 248.159 115 247.366 115H234.106C233.766 115 233.482 114.887 233.256 114.66C233.029 114.433 232.916 114.207 232.916 113.98C232.916 113.527 233.029 113.243 233.256 113.13C233.482 112.903 233.822 112.733 234.276 112.62L275.076 101.23C275.982 101.003 276.606 100.89 276.946 100.89C277.286 100.777 277.626 100.72 277.966 100.72C278.532 100.72 278.929 100.89 279.156 101.23C279.382 101.57 279.496 101.967 279.496 102.42ZM263.516 73.35C257.962 73.35 253.429 71.48 249.916 67.74C246.516 63.8867 244.816 59.1833 244.816 53.63C244.816 48.0767 246.572 43.43 250.086 39.69C253.712 35.8367 258.189 33.91 263.516 33.91C269.182 33.91 273.772 35.8367 277.286 39.69C280.912 43.5433 282.726 48.19 282.726 53.63C282.726 59.1833 280.912 63.8867 277.286 67.74C273.659 71.48 269.069 73.35 263.516 73.35ZM367.965 251.51C376.691 251.51 383.605 249.187 388.705 244.54C393.918 239.893 396.525 233.83 396.525 226.35C396.525 221.25 395.335 216.717 392.955 212.75C390.688 208.67 386.778 204.987 381.225 201.7C375.785 198.3 368.305 195.07 358.785 192.01C346.318 187.93 336.401 183.51 329.035 178.75C321.781 173.877 316.625 168.38 313.565 162.26C310.505 156.14 308.975 149.17 308.975 141.35C308.975 127.977 313.508 117.663 322.575 110.41C331.641 103.043 343.655 99.36 358.615 99.36C365.415 99.36 371.025 100.04 375.445 101.4C379.865 102.76 383.208 104.12 385.475 105.48C387.855 106.727 389.385 107.35 390.065 107.35C390.971 107.35 392.615 106.727 394.995 105.48C397.375 104.12 399.698 102.76 401.965 101.4C404.231 100.04 405.648 99.36 406.215 99.36C406.555 99.36 406.895 99.4733 407.235 99.7C407.575 99.8133 407.801 100.21 407.915 100.89L417.945 147.47C418.171 148.15 418.228 148.773 418.115 149.34C418.001 149.793 417.775 150.133 417.435 150.36C417.095 150.473 416.755 150.473 416.415 150.36C416.188 150.133 415.905 149.85 415.565 149.51C410.125 137.723 404.571 128.373 398.905 121.46C393.238 114.433 387.175 109.39 380.715 106.33C374.368 103.27 367.398 101.74 359.805 101.74C350.285 101.74 342.805 104.177 337.365 109.05C331.925 113.81 329.205 120.213 329.205 128.26C329.205 133.247 330.338 137.78 332.605 141.86C334.871 145.94 338.895 149.68 344.675 153.08C350.568 156.367 358.841 159.54 369.495 162.6C380.941 166 390.121 170.08 397.035 174.84C404.061 179.487 409.161 184.927 412.335 191.16C415.621 197.393 417.265 204.363 417.265 212.07C417.265 220.57 415.225 227.993 411.145 234.34C407.065 240.573 401.455 245.447 394.315 248.96C387.175 252.473 379.071 254.23 370.005 254.23C363.885 254.23 358.558 253.267 354.025 251.34C349.491 249.527 345.865 247.713 343.145 245.9C340.425 243.973 338.725 243.01 338.045 243.01C337.478 243.01 336.288 243.917 334.475 245.73C332.661 247.43 330.735 249.13 328.695 250.83C326.768 252.53 325.408 253.38 324.615 253.38C324.275 253.38 323.878 253.21 323.425 252.87C322.971 252.53 322.631 251.85 322.405 250.83L314.075 210.2C313.961 209.18 313.905 208.443 313.905 207.99C314.018 207.423 314.301 207.027 314.755 206.8C314.981 206.573 315.208 206.573 315.435 206.8C315.775 207.027 316.001 207.31 316.115 207.65C324.275 223.857 332.831 235.247 341.785 241.82C350.738 248.28 359.465 251.51 367.965 251.51ZM481.347 2.62999V242.33C481.347 243.69 481.687 244.767 482.367 245.56C483.047 246.353 484.067 246.92 485.427 247.26L496.137 248.79C497.27 248.903 497.837 249.3 497.837 249.98C497.837 250.66 497.383 251 496.477 251H435.447C435.22 251 434.993 250.943 434.767 250.83C434.54 250.603 434.427 250.32 434.427 249.98C434.427 249.753 434.597 249.527 434.937 249.3C435.277 248.96 435.843 248.733 436.637 248.62L447.177 247.26C448.65 246.92 449.67 246.353 450.237 245.56C450.917 244.767 451.257 243.747 451.257 242.5V16.91C451.257 16.3433 451.087 15.89 450.747 15.55C450.52 15.21 450.01 15.04 449.217 15.04H435.957C435.617 15.04 435.333 14.9267 435.107 14.7C434.88 14.4733 434.767 14.2467 434.767 14.02C434.767 13.68 434.88 13.4533 435.107 13.34C435.333 13.1133 435.673 12.9433 436.127 12.83L476.927 1.43999C477.833 1.09999 478.457 0.929987 478.797 0.929987C479.137 0.816649 479.477 0.759979 479.817 0.759979C480.383 0.759979 480.78 0.98665 481.007 1.43999C481.233 1.77999 481.347 2.17666 481.347 2.62999ZM478.967 133.7L477.607 132.17L483.387 126.9C494.153 117.153 503.333 110.24 510.927 106.16C518.633 102.08 526.057 100.04 533.197 100.04C543.623 100.04 551.727 103.497 557.507 110.41C563.4 117.21 567.367 127.75 569.407 142.03L582.667 240.97C582.893 242.783 583.403 244.313 584.197 245.56C585.103 246.693 586.52 247.373 588.447 247.6L597.457 248.96C598.023 249.073 598.42 249.243 598.647 249.47C598.873 249.583 598.987 249.753 598.987 249.98C598.987 250.32 598.873 250.603 598.647 250.83C598.42 250.943 598.08 251 597.627 251H535.577C534.557 251 534.047 250.66 534.047 249.98C534.047 249.527 534.67 249.13 535.917 248.79L546.967 247.26C549.007 246.92 550.367 246.183 551.047 245.05C551.84 243.803 552.123 242.443 551.897 240.97L539.657 145.09C538.07 134.097 535.35 126.05 531.497 120.95C527.757 115.85 522.203 113.3 514.837 113.3C509.963 113.3 505.09 114.547 500.217 117.04C495.457 119.533 490.243 123.387 484.577 128.6L478.967 133.7ZM609.381 249.98C609.381 249.413 609.834 249.073 610.741 248.96L627.571 246.58C629.497 246.24 630.857 245.73 631.651 245.05C632.444 244.37 632.841 243.35 632.841 241.99V22.35C632.841 20.7633 632.444 19.63 631.651 18.95C630.857 18.27 629.441 17.76 627.401 17.42L610.741 15.04C609.834 14.8133 609.381 14.4166 609.381 13.85C609.381 13.51 609.494 13.2833 609.721 13.17C609.947 13.0567 610.287 13 610.741 13H685.541C706.167 13 724.867 16.0033 741.641 22.01C758.527 28.0167 773.034 36.7433 785.161 48.19C797.287 59.5233 806.637 73.18 813.211 89.16C819.784 105.14 823.071 123.16 823.071 143.22C823.071 165.773 818.084 185.097 808.111 201.19C798.251 217.283 784.481 229.637 766.801 238.25C749.234 246.75 728.891 251 705.771 251H610.741C610.174 251 609.777 250.943 609.551 250.83C609.437 250.603 609.381 250.32 609.381 249.98ZM705.771 248.28C721.297 248.28 735.067 244.37 747.081 236.55C759.207 228.73 768.727 216.717 775.641 200.51C782.667 184.303 786.181 163.677 786.181 138.63C786.181 119.25 783.971 101.967 779.551 86.78C775.131 71.48 768.614 58.56 760.001 48.02C751.387 37.48 740.847 29.49 728.381 24.05C715.914 18.4967 701.691 15.72 685.711 15.72H667.861V242.33C667.861 244.257 668.371 245.73 669.391 246.75C670.411 247.77 671.827 248.28 673.641 248.28H705.771ZM930.431 235.36V234.17L929.071 235.36V133.02C929.071 122.933 927.088 115.227 923.121 109.9C919.154 104.46 913.204 101.74 905.271 101.74C896.431 101.74 889.971 103.837 885.891 108.03C881.811 112.223 879.771 116.587 879.771 121.12V132.85C879.771 137.497 878.184 141.35 875.011 144.41C871.951 147.357 868.098 148.83 863.451 148.83C859.938 148.83 856.991 147.697 854.611 145.43C852.344 143.05 851.211 139.593 851.211 135.06C851.211 129.393 853.364 123.84 857.671 118.4C862.091 112.96 868.551 108.483 877.051 104.97C885.664 101.457 896.204 99.7 908.671 99.7C925.784 99.7 938.478 103.497 946.751 111.09C955.138 118.57 959.331 128.997 959.331 142.37V232.64C959.331 237.287 960.068 240.63 961.541 242.67C963.128 244.597 965.054 245.56 967.321 245.56C969.361 245.56 971.174 244.937 972.761 243.69C974.461 242.443 975.424 240.573 975.651 238.08C975.764 237.627 975.878 237.343 975.991 237.23C976.218 237.117 976.388 237.06 976.501 237.06C976.841 237.06 977.011 237.117 977.011 237.23C977.124 237.343 977.181 237.627 977.181 238.08C977.181 239.893 976.388 242.047 974.801 244.54C973.214 247.033 970.664 249.187 967.151 251C963.638 252.927 958.991 253.89 953.211 253.89C945.504 253.89 939.781 252.19 936.041 248.79C932.301 245.39 930.431 240.913 930.431 235.36ZM843.051 218.36C843.051 206.8 847.868 197.337 857.501 189.97C867.134 182.603 881.811 178.92 901.531 178.92C909.578 178.92 916.208 179.657 921.421 181.13C926.634 182.603 931.451 184.417 935.871 186.57L934.851 187.76C930.431 185.72 925.784 184.077 920.911 182.83C916.151 181.583 910.824 180.96 904.931 180.96C894.731 180.96 886.968 183.907 881.641 189.8C876.314 195.693 873.651 203.683 873.651 213.77C873.651 223.63 876.144 231.337 881.131 236.89C886.231 242.443 892.918 245.22 901.191 245.22C906.858 245.22 912.468 243.973 918.021 241.48C923.574 238.987 928.221 235.36 931.961 230.6L933.491 231.62C928.504 238.873 921.704 244.427 913.091 248.28C904.478 252.133 895.184 254.06 885.211 254.06C872.631 254.06 862.431 250.773 854.611 244.2C846.904 237.513 843.051 228.9 843.051 218.36ZM1048.63 251.51C1057.36 251.51 1064.27 249.187 1069.37 244.54C1074.58 239.893 1077.19 233.83 1077.19 226.35C1077.19 221.25 1076 216.717 1073.62 212.75C1071.35 208.67 1067.44 204.987 1061.89 201.7C1056.45 198.3 1048.97 195.07 1039.45 192.01C1026.98 187.93 1017.07 183.51 1009.7 178.75C1002.45 173.877 997.289 168.38 994.229 162.26C991.169 156.14 989.639 149.17 989.639 141.35C989.639 127.977 994.172 117.663 1003.24 110.41C1012.31 103.043 1024.32 99.36 1039.28 99.36C1046.08 99.36 1051.69 100.04 1056.11 101.4C1060.53 102.76 1063.87 104.12 1066.14 105.48C1068.52 106.727 1070.05 107.35 1070.73 107.35C1071.64 107.35 1073.28 106.727 1075.66 105.48C1078.04 104.12 1080.36 102.76 1082.63 101.4C1084.9 100.04 1086.31 99.36 1086.88 99.36C1087.22 99.36 1087.56 99.4733 1087.9 99.7C1088.24 99.8133 1088.47 100.21 1088.58 100.89L1098.61 147.47C1098.84 148.15 1098.89 148.773 1098.78 149.34C1098.67 149.793 1098.44 150.133 1098.1 150.36C1097.76 150.473 1097.42 150.473 1097.08 150.36C1096.85 150.133 1096.57 149.85 1096.23 149.51C1090.79 137.723 1085.24 128.373 1079.57 121.46C1073.9 114.433 1067.84 109.39 1061.38 106.33C1055.03 103.27 1048.06 101.74 1040.47 101.74C1030.95 101.74 1023.47 104.177 1018.03 109.05C1012.59 113.81 1009.87 120.213 1009.87 128.26C1009.87 133.247 1011 137.78 1013.27 141.86C1015.54 145.94 1019.56 149.68 1025.34 153.08C1031.23 156.367 1039.51 159.54 1050.16 162.6C1061.61 166 1070.79 170.08 1077.7 174.84C1084.73 179.487 1089.83 184.927 1093 191.16C1096.29 197.393 1097.93 204.363 1097.93 212.07C1097.93 220.57 1095.89 227.993 1091.81 234.34C1087.73 240.573 1082.12 245.447 1074.98 248.96C1067.84 252.473 1059.74 254.23 1050.67 254.23C1044.55 254.23 1039.22 253.267 1034.69 251.34C1030.16 249.527 1026.53 247.713 1023.81 245.9C1021.09 243.973 1019.39 243.01 1018.71 243.01C1018.14 243.01 1016.95 243.917 1015.14 245.73C1013.33 247.43 1011.4 249.13 1009.36 250.83C1007.43 252.53 1006.07 253.38 1005.28 253.38C1004.94 253.38 1004.54 253.21 1004.09 252.87C1003.64 252.53 1003.3 251.85 1003.07 250.83L994.739 210.2C994.625 209.18 994.569 208.443 994.569 207.99C994.682 207.423 994.965 207.027 995.419 206.8C995.645 206.573 995.872 206.573 996.099 206.8C996.439 207.027 996.665 207.31 996.779 207.65C1004.94 223.857 1013.5 235.247 1022.45 241.82C1031.4 248.28 1040.13 251.51 1048.63 251.51ZM1162.01 2.62999V242.33C1162.01 243.69 1162.35 244.767 1163.03 245.56C1163.71 246.353 1164.73 246.92 1166.09 247.26L1176.8 248.79C1177.93 248.903 1178.5 249.3 1178.5 249.98C1178.5 250.66 1178.05 251 1177.14 251H1116.11C1115.88 251 1115.66 250.943 1115.43 250.83C1115.2 250.603 1115.09 250.32 1115.09 249.98C1115.09 249.753 1115.26 249.527 1115.6 249.3C1115.94 248.96 1116.51 248.733 1117.3 248.62L1127.84 247.26C1129.31 246.92 1130.33 246.353 1130.9 245.56C1131.58 244.767 1131.92 243.747 1131.92 242.5V16.91C1131.92 16.3433 1131.75 15.89 1131.41 15.55C1131.18 15.21 1130.67 15.04 1129.88 15.04H1116.62C1116.28 15.04 1116 14.9267 1115.77 14.7C1115.54 14.4733 1115.43 14.2467 1115.43 14.02C1115.43 13.68 1115.54 13.4533 1115.77 13.34C1116 13.1133 1116.34 12.9433 1116.79 12.83L1157.59 1.43999C1158.5 1.09999 1159.12 0.929987 1159.46 0.929987C1159.8 0.816649 1160.14 0.759979 1160.48 0.759979C1161.05 0.759979 1161.44 0.98665 1161.67 1.43999C1161.9 1.77999 1162.01 2.17666 1162.01 2.62999ZM1159.63 133.7L1158.27 132.17L1164.05 126.9C1174.82 117.153 1184 110.24 1191.59 106.16C1199.3 102.08 1206.72 100.04 1213.86 100.04C1224.29 100.04 1232.39 103.497 1238.17 110.41C1244.06 117.21 1248.03 127.75 1250.07 142.03L1263.33 240.97C1263.56 242.783 1264.07 244.313 1264.86 245.56C1265.77 246.693 1267.18 247.373 1269.11 247.6L1278.12 248.96C1278.69 249.073 1279.08 249.243 1279.31 249.47C1279.54 249.583 1279.65 249.753 1279.65 249.98C1279.65 250.32 1279.54 250.603 1279.31 250.83C1279.08 250.943 1278.74 251 1278.29 251H1216.24C1215.22 251 1214.71 250.66 1214.71 249.98C1214.71 249.527 1215.33 249.13 1216.58 248.79L1227.63 247.26C1229.67 246.92 1231.03 246.183 1231.71 245.05C1232.5 243.803 1232.79 242.443 1232.56 240.97L1220.32 145.09C1218.73 134.097 1216.01 126.05 1212.16 120.95C1208.42 115.85 1202.87 113.3 1195.5 113.3C1190.63 113.3 1185.75 114.547 1180.88 117.04C1176.12 119.533 1170.91 123.387 1165.24 128.6L1159.63 133.7Z" fill="white"/>
</svg>
