<svg width="134" height="23" viewBox="0 0 134 23" fill="none" xmlns="http://www.w3.org/2000/svg">
<path d="M0.635 22.005C0.635 21.725 0.81 21.535 1.16 21.435L2.195 21.255C2.435 21.205 2.615 21.115 2.735 20.985C2.855 20.855 2.915 20.69 2.915 20.49V3.51C2.915 3.31 2.855 3.145 2.735 3.015C2.615 2.885 2.435 2.795 2.195 2.745L1.16 2.55C0.81 2.46 0.635 2.275 0.635 1.995C0.635 1.835 0.69 1.715 0.8 1.635C0.91 1.545 1.08 1.5 1.31 1.5H8.54C10.41 1.5 12.105 1.775 13.625 2.325C15.145 2.865 16.45 3.63 17.54 4.62C18.64 5.61 19.485 6.785 20.075 8.145C20.665 9.495 20.96 10.985 20.96 12.615C20.96 14.535 20.52 16.24 19.64 17.73C18.77 19.21 17.51 20.375 15.86 21.225C14.22 22.075 12.24 22.5 9.92 22.5H1.31C1.08 22.5 0.91 22.455 0.8 22.365C0.69 22.275 0.635 22.155 0.635 22.005ZM9.71 21.39C11.28 21.39 12.635 21.05 13.775 20.37C14.915 19.69 15.795 18.695 16.415 17.385C17.035 16.065 17.345 14.435 17.345 12.495C17.345 10.985 17.135 9.625 16.715 8.415C16.295 7.205 15.685 6.17 14.885 5.31C14.085 4.44 13.12 3.775 11.99 3.315C10.86 2.845 9.59 2.61 8.18 2.61H6.365V20.19C6.365 20.6 6.49 20.905 6.74 21.105C6.99 21.295 7.37 21.39 7.88 21.39H9.71ZM28.2809 9.03V20.55C28.2809 20.81 28.3259 21.005 28.4159 21.135C28.5159 21.265 28.6609 21.355 28.8509 21.405L29.5559 21.555C29.7259 21.595 29.8509 21.655 29.9309 21.735C30.0109 21.815 30.0509 21.915 30.0509 22.035C30.0509 22.175 29.9959 22.29 29.8859 22.38C29.7859 22.46 29.6309 22.5 29.4209 22.5H23.9909C23.7809 22.5 23.6259 22.46 23.5259 22.38C23.4259 22.29 23.3759 22.175 23.3759 22.035C23.3759 21.925 23.4109 21.83 23.4809 21.75C23.5609 21.67 23.6809 21.605 23.8409 21.555L24.5909 21.405C24.7809 21.345 24.9209 21.255 25.0109 21.135C25.1109 21.005 25.1609 20.815 25.1609 20.565V11.085C25.1609 10.875 25.1259 10.725 25.0559 10.635C24.9859 10.535 24.8709 10.475 24.7109 10.455L23.6759 10.41C23.5159 10.39 23.4009 10.35 23.3309 10.29C23.2709 10.22 23.2409 10.13 23.2409 10.02C23.2409 9.9 23.2759 9.8 23.3459 9.72C23.4259 9.64 23.5709 9.565 23.7809 9.495L26.3759 8.61C26.6759 8.5 26.9159 8.425 27.0959 8.385C27.2759 8.335 27.4259 8.31 27.5459 8.31C27.7959 8.31 27.9809 8.375 28.1009 8.505C28.2209 8.635 28.2809 8.81 28.2809 9.03ZM26.4059 5.55C25.7759 5.55 25.2609 5.375 24.8609 5.025C24.4709 4.665 24.2759 4.21 24.2759 3.66C24.2759 3.1 24.4709 2.645 24.8609 2.295C25.2609 1.945 25.7759 1.77 26.4059 1.77C27.0459 1.77 27.5659 1.945 27.9659 2.295C28.3659 2.645 28.5659 3.1 28.5659 3.66C28.5659 4.21 28.3659 4.665 27.9659 5.025C27.5659 5.375 27.0459 5.55 26.4059 5.55ZM38.2393 21.81C38.9793 21.81 39.5643 21.615 39.9943 21.225C40.4343 20.835 40.6543 20.33 40.6543 19.71C40.6543 19.32 40.5593 18.97 40.3693 18.66C40.1893 18.34 39.8593 18.05 39.3793 17.79C38.9093 17.53 38.2393 17.29 37.3693 17.07C36.0093 16.75 34.9443 16.36 34.1743 15.9C33.4043 15.44 32.8643 14.915 32.5543 14.325C32.2443 13.735 32.0893 13.085 32.0893 12.375C32.0893 11.115 32.5393 10.105 33.4393 9.345C34.3393 8.585 35.6193 8.205 37.2793 8.205C37.9093 8.205 38.4243 8.26 38.8243 8.37C39.2343 8.47 39.5693 8.58 39.8293 8.7C40.0993 8.81 40.3293 8.865 40.5193 8.865C40.7193 8.865 40.8743 8.81 40.9843 8.7C41.0943 8.58 41.1993 8.465 41.2993 8.355C41.4093 8.245 41.5543 8.19 41.7343 8.19C41.8443 8.19 41.9443 8.23 42.0343 8.31C42.1243 8.38 42.1993 8.515 42.2593 8.715L43.3393 11.97C43.4293 12.22 43.4543 12.43 43.4143 12.6C43.3843 12.77 43.2843 12.89 43.1143 12.96C42.9443 13.02 42.7943 13.02 42.6643 12.96C42.5443 12.89 42.4243 12.765 42.3043 12.585C41.8643 11.735 41.3843 11.07 40.8643 10.59C40.3443 10.1 39.7943 9.75 39.2143 9.54C38.6443 9.33 38.0493 9.225 37.4293 9.225C36.4893 9.225 35.7843 9.425 35.3143 9.825C34.8443 10.225 34.6093 10.76 34.6093 11.43C34.6093 11.83 34.7093 12.195 34.9093 12.525C35.1093 12.855 35.4743 13.16 36.0043 13.44C36.5343 13.71 37.2843 13.97 38.2543 14.22C39.4543 14.51 40.4093 14.87 41.1193 15.3C41.8393 15.72 42.3543 16.22 42.6643 16.8C42.9743 17.38 43.1293 18.055 43.1293 18.825C43.1293 19.615 42.9293 20.315 42.5293 20.925C42.1393 21.525 41.5893 21.995 40.8793 22.335C40.1693 22.675 39.3343 22.845 38.3743 22.845C37.7643 22.845 37.2693 22.78 36.8893 22.65C36.5093 22.52 36.1943 22.39 35.9443 22.26C35.6943 22.13 35.4593 22.065 35.2393 22.065C35.0493 22.065 34.8893 22.13 34.7593 22.26C34.6393 22.39 34.5243 22.52 34.4143 22.65C34.3043 22.78 34.1743 22.845 34.0243 22.845C33.9143 22.845 33.8193 22.805 33.7393 22.725C33.6593 22.645 33.5993 22.51 33.5593 22.32L32.9143 19.275C32.8443 18.945 32.8243 18.7 32.8543 18.54C32.8943 18.38 32.9893 18.27 33.1393 18.21C33.3093 18.15 33.4543 18.165 33.5743 18.255C33.7043 18.335 33.8343 18.49 33.9643 18.72C34.5543 19.82 35.2143 20.61 35.9443 21.09C36.6843 21.57 37.4493 21.81 38.2393 21.81ZM50.8245 1.095V20.55C50.8245 20.81 50.8745 21.005 50.9745 21.135C51.0745 21.255 51.2195 21.345 51.4095 21.405L52.0995 21.555C52.3895 21.655 52.5345 21.81 52.5345 22.02C52.5345 22.34 52.3245 22.5 51.9045 22.5H46.5345C46.3245 22.5 46.1695 22.46 46.0695 22.38C45.9695 22.29 45.9195 22.175 45.9195 22.035C45.9195 21.925 45.9595 21.83 46.0395 21.75C46.1195 21.67 46.2395 21.605 46.3995 21.555L47.1345 21.405C47.3245 21.345 47.4645 21.255 47.5545 21.135C47.6545 21.005 47.7045 20.815 47.7045 20.565V3.15C47.7045 2.94 47.6695 2.79 47.5995 2.7C47.5295 2.6 47.4145 2.54 47.2545 2.52L46.2195 2.49C46.0595 2.46 45.9445 2.415 45.8745 2.355C45.8145 2.285 45.7845 2.195 45.7845 2.085C45.7845 1.965 45.8195 1.87 45.8895 1.8C45.9695 1.72 46.1145 1.64 46.3245 1.56L48.9195 0.674999C49.2095 0.564999 49.4445 0.489999 49.6245 0.45C49.8045 0.4 49.9695 0.375 50.1195 0.375C50.3595 0.375 50.5345 0.44 50.6445 0.57C50.7645 0.699999 50.8245 0.874999 50.8245 1.095ZM50.4195 12.18L49.8795 11.625L50.5245 11.07C51.6845 10.04 52.6795 9.305 53.5095 8.865C54.3495 8.415 55.1595 8.19 55.9395 8.19C57.1195 8.19 58.0345 8.585 58.6845 9.375C59.3345 10.155 59.7345 11.215 59.8845 12.555L60.8145 20.49C60.8445 20.77 60.9045 20.98 60.9945 21.12C61.0945 21.26 61.2495 21.36 61.4595 21.42L62.1045 21.555C62.2645 21.605 62.3845 21.67 62.4645 21.75C62.5445 21.83 62.5845 21.925 62.5845 22.035C62.5845 22.175 62.5345 22.29 62.4345 22.38C62.3345 22.46 62.1745 22.5 61.9545 22.5H56.5545C56.1245 22.5 55.9095 22.34 55.9095 22.02C55.9095 21.81 56.0545 21.655 56.3445 21.555L57.0645 21.405C57.2745 21.345 57.4345 21.245 57.5445 21.105C57.6545 20.965 57.6945 20.76 57.6645 20.49L56.7645 13.02C56.6445 12.03 56.3895 11.29 55.9995 10.8C55.6095 10.3 55.0395 10.05 54.2895 10.05C53.8195 10.05 53.3195 10.18 52.7895 10.44C52.2595 10.7 51.6795 11.095 51.0495 11.625L50.4195 12.18ZM64.4729 22.005C64.4729 21.725 64.6479 21.535 64.9979 21.435L66.0329 21.255C66.2729 21.205 66.4529 21.115 66.5729 20.985C66.6929 20.855 66.7529 20.69 66.7529 20.49V3.51C66.7529 3.31 66.6929 3.145 66.5729 3.015C66.4529 2.885 66.2729 2.795 66.0329 2.745L64.9979 2.55C64.6479 2.46 64.4729 2.275 64.4729 1.995C64.4729 1.835 64.5279 1.715 64.6379 1.635C64.7479 1.545 64.9179 1.5 65.1479 1.5H72.3779C74.2479 1.5 75.9429 1.775 77.4629 2.325C78.9829 2.865 80.2879 3.63 81.3779 4.62C82.4779 5.61 83.3229 6.785 83.9129 8.145C84.5029 9.495 84.7979 10.985 84.7979 12.615C84.7979 14.535 84.3579 16.24 83.4779 17.73C82.6079 19.21 81.3479 20.375 79.6979 21.225C78.0579 22.075 76.0779 22.5 73.7579 22.5H65.1479C64.9179 22.5 64.7479 22.455 64.6379 22.365C64.5279 22.275 64.4729 22.155 64.4729 22.005ZM73.5479 21.39C75.1179 21.39 76.4729 21.05 77.6129 20.37C78.7529 19.69 79.6329 18.695 80.2529 17.385C80.8729 16.065 81.1829 14.435 81.1829 12.495C81.1829 10.985 80.9729 9.625 80.5529 8.415C80.1329 7.205 79.5229 6.17 78.7229 5.31C77.9229 4.44 76.9579 3.775 75.8279 3.315C74.6979 2.845 73.4279 2.61 72.0179 2.61H70.2029V20.19C70.2029 20.6 70.3279 20.905 70.5779 21.105C70.8279 21.295 71.2079 21.39 71.7179 21.39H73.5479ZM96.1988 20.7V20.415L96.0188 20.34V11.73C96.0188 10.86 95.8038 10.195 95.3738 9.735C94.9538 9.275 94.3488 9.045 93.5588 9.045C92.7988 9.045 92.2288 9.205 91.8488 9.525C91.4688 9.845 91.2788 10.22 91.2788 10.65V11.82C91.2788 12.3 91.1238 12.67 90.8138 12.93C90.5038 13.18 90.0738 13.305 89.5238 13.305C89.0538 13.305 88.6938 13.185 88.4438 12.945C88.1938 12.695 88.0688 12.36 88.0688 11.94C88.0688 11.33 88.3038 10.74 88.7738 10.17C89.2438 9.6 89.9288 9.13 90.8288 8.76C91.7388 8.39 92.8388 8.205 94.1288 8.205C95.8088 8.205 97.0588 8.57 97.8788 9.3C98.6988 10.02 99.1088 10.995 99.1088 12.225V20.325C99.1088 20.655 99.1688 20.895 99.2888 21.045C99.4188 21.195 99.5938 21.27 99.8138 21.27C100.054 21.27 100.229 21.215 100.339 21.105C100.449 20.985 100.544 20.865 100.624 20.745C100.664 20.685 100.709 20.635 100.759 20.595C100.809 20.555 100.874 20.535 100.954 20.535C101.044 20.535 101.114 20.57 101.164 20.64C101.214 20.71 101.239 20.805 101.239 20.925C101.239 21.195 101.139 21.48 100.939 21.78C100.749 22.07 100.464 22.32 100.084 22.53C99.7138 22.74 99.2488 22.845 98.6888 22.845C97.9088 22.845 97.2988 22.66 96.8588 22.29C96.4188 21.92 96.1988 21.39 96.1988 20.7ZM87.3788 19.41C87.3788 18.23 87.8988 17.27 88.9388 16.53C89.9788 15.78 91.4338 15.405 93.3038 15.405C93.9938 15.405 94.6138 15.47 95.1638 15.6C95.7238 15.72 96.2188 15.88 96.6488 16.08L96.4238 16.83C96.0138 16.65 95.5888 16.505 95.1488 16.395C94.7188 16.285 94.2438 16.23 93.7238 16.23C92.7438 16.23 91.9788 16.47 91.4288 16.95C90.8788 17.42 90.6038 18.07 90.6038 18.9C90.6038 19.71 90.8288 20.335 91.2788 20.775C91.7388 21.205 92.3238 21.42 93.0338 21.42C93.6838 21.42 94.3138 21.275 94.9238 20.985C95.5338 20.685 96.0538 20.26 96.4838 19.71L96.7838 20.355C96.2038 21.145 95.4538 21.76 94.5338 22.2C93.6238 22.63 92.6538 22.845 91.6238 22.845C90.3738 22.845 89.3538 22.535 88.5638 21.915C87.7738 21.285 87.3788 20.45 87.3788 19.41ZM109.226 21.81C109.966 21.81 110.551 21.615 110.981 21.225C111.421 20.835 111.641 20.33 111.641 19.71C111.641 19.32 111.546 18.97 111.356 18.66C111.176 18.34 110.846 18.05 110.366 17.79C109.896 17.53 109.226 17.29 108.356 17.07C106.996 16.75 105.931 16.36 105.161 15.9C104.391 15.44 103.851 14.915 103.541 14.325C103.231 13.735 103.076 13.085 103.076 12.375C103.076 11.115 103.526 10.105 104.426 9.345C105.326 8.585 106.606 8.205 108.266 8.205C108.896 8.205 109.411 8.26 109.811 8.37C110.221 8.47 110.556 8.58 110.816 8.7C111.086 8.81 111.316 8.865 111.506 8.865C111.706 8.865 111.861 8.81 111.971 8.7C112.081 8.58 112.186 8.465 112.286 8.355C112.396 8.245 112.541 8.19 112.721 8.19C112.831 8.19 112.931 8.23 113.021 8.31C113.111 8.38 113.186 8.515 113.246 8.715L114.326 11.97C114.416 12.22 114.441 12.43 114.401 12.6C114.371 12.77 114.271 12.89 114.101 12.96C113.931 13.02 113.781 13.02 113.651 12.96C113.531 12.89 113.411 12.765 113.291 12.585C112.851 11.735 112.371 11.07 111.851 10.59C111.331 10.1 110.781 9.75 110.201 9.54C109.631 9.33 109.036 9.225 108.416 9.225C107.476 9.225 106.771 9.425 106.301 9.825C105.831 10.225 105.596 10.76 105.596 11.43C105.596 11.83 105.696 12.195 105.896 12.525C106.096 12.855 106.461 13.16 106.991 13.44C107.521 13.71 108.271 13.97 109.241 14.22C110.441 14.51 111.396 14.87 112.106 15.3C112.826 15.72 113.341 16.22 113.651 16.8C113.961 17.38 114.116 18.055 114.116 18.825C114.116 19.615 113.916 20.315 113.516 20.925C113.126 21.525 112.576 21.995 111.866 22.335C111.156 22.675 110.321 22.845 109.361 22.845C108.751 22.845 108.256 22.78 107.876 22.65C107.496 22.52 107.181 22.39 106.931 22.26C106.681 22.13 106.446 22.065 106.226 22.065C106.036 22.065 105.876 22.13 105.746 22.26C105.626 22.39 105.511 22.52 105.401 22.65C105.291 22.78 105.161 22.845 105.011 22.845C104.901 22.845 104.806 22.805 104.726 22.725C104.646 22.645 104.586 22.51 104.546 22.32L103.901 19.275C103.831 18.945 103.811 18.7 103.841 18.54C103.881 18.38 103.976 18.27 104.126 18.21C104.296 18.15 104.441 18.165 104.561 18.255C104.691 18.335 104.821 18.49 104.951 18.72C105.541 19.82 106.201 20.61 106.931 21.09C107.671 21.57 108.436 21.81 109.226 21.81ZM121.811 1.095V20.55C121.811 20.81 121.861 21.005 121.961 21.135C122.061 21.255 122.206 21.345 122.396 21.405L123.086 21.555C123.376 21.655 123.521 21.81 123.521 22.02C123.521 22.34 123.311 22.5 122.891 22.5H117.521C117.311 22.5 117.156 22.46 117.056 22.38C116.956 22.29 116.906 22.175 116.906 22.035C116.906 21.925 116.946 21.83 117.026 21.75C117.106 21.67 117.226 21.605 117.386 21.555L118.121 21.405C118.311 21.345 118.451 21.255 118.541 21.135C118.641 21.005 118.691 20.815 118.691 20.565V3.15C118.691 2.94 118.656 2.79 118.586 2.7C118.516 2.6 118.401 2.54 118.241 2.52L117.206 2.49C117.046 2.46 116.931 2.415 116.861 2.355C116.801 2.285 116.771 2.195 116.771 2.085C116.771 1.965 116.806 1.87 116.876 1.8C116.956 1.72 117.101 1.64 117.311 1.56L119.906 0.674999C120.196 0.564999 120.431 0.489999 120.611 0.45C120.791 0.4 120.956 0.375 121.106 0.375C121.346 0.375 121.521 0.44 121.631 0.57C121.751 0.699999 121.811 0.874999 121.811 1.095ZM121.406 12.18L120.866 11.625L121.511 11.07C122.671 10.04 123.666 9.305 124.496 8.865C125.336 8.415 126.146 8.19 126.926 8.19C128.106 8.19 129.021 8.585 129.671 9.375C130.321 10.155 130.721 11.215 130.871 12.555L131.801 20.49C131.831 20.77 131.891 20.98 131.981 21.12C132.081 21.26 132.236 21.36 132.446 21.42L133.091 21.555C133.251 21.605 133.371 21.67 133.451 21.75C133.531 21.83 133.571 21.925 133.571 22.035C133.571 22.175 133.521 22.29 133.421 22.38C133.321 22.46 133.161 22.5 132.941 22.5H127.541C127.111 22.5 126.896 22.34 126.896 22.02C126.896 21.81 127.041 21.655 127.331 21.555L128.051 21.405C128.261 21.345 128.421 21.245 128.531 21.105C128.641 20.965 128.681 20.76 128.651 20.49L127.751 13.02C127.631 12.03 127.376 11.29 126.986 10.8C126.596 10.3 126.026 10.05 125.276 10.05C124.806 10.05 124.306 10.18 123.776 10.44C123.246 10.7 122.666 11.095 122.036 11.625L121.406 12.18Z" fill="white"/>
</svg>
